/vscmnt/brussel_pixiu_data/_data_brussel/112/vsc11236/PredSimResults/SUBJ07opt3D/weighted-trackIG/worker_04.mot
version=1
nRows=9
nColumns=50
inDegrees=yes
endheader
                time	         pelvis_tilt	         pelvis_list	     pelvis_rotation	           pelvis_tx	           pelvis_ty	           pelvis_tz	       hip_flexion_r	     hip_adduction_r	      hip_rotation_r	        knee_angle_r	       ankle_angle_r	         mtp_angle_r	       hip_flexion_l	     hip_adduction_l	      hip_rotation_l	        knee_angle_l	       ankle_angle_l	         mtp_angle_l	    lumbar_extension	      lumbar_bending	     lumbar_rotation	 ercspn_r/activation	 intobl_r/activation	 extobl_r/activation	    abd_r/activation	    add_r/activation	hamstrings_r/activation	bifemsh_r/activation	glut_max_r/activation	iliopsoas_r/activation	rect_fem_r/activation	  vasti_r/activation	gastroc_r/activation	 soleus_r/activation	tib_ant_r/activation	 ercspn_l/activation	 intobl_l/activation	 extobl_l/activation	    abd_l/activation	    add_l/activation	hamstrings_l/activation	bifemsh_l/activation	glut_max_l/activation	iliopsoas_l/activation	rect_fem_l/activation	  vasti_l/activation	gastroc_l/activation	 soleus_l/activation	tib_ant_l/activation	
          0.55502142	         -4.11794739	          0.04740805	         -9.60475882	          0.67712613	          0.84657442	          0.01504244	        -14.68750591	          0.07118178	          5.70265998	         -8.11292928	          8.99647661	         28.17391508	         30.97615975	         -3.04576648	         -6.11192410	         -7.92237908	          2.86311938	          0.27591797	        -12.37886059	          1.53361618	          1.55795179	          0.10717714	          0.00999999	          0.00999999	          0.03603223	          0.04536488	          0.01620352	          0.17825991	          0.02328944	          0.41457597	          0.01000000	          0.00999999	          0.19090541	          0.33601332	          0.01920573	          0.12648610	          0.13212215	          0.00999999	          0.01621376	          0.17020830	          0.09190250	          0.11444317	          0.09271605	          0.05460202	          0.00999999	          0.00999999	          0.00999999	          0.00999999	          0.43719098	
          0.56612184	         -4.10274827	          0.00784841	         -9.67012661	          0.69352650	          0.84472508	          0.01454497	        -15.31655895	         -0.05696176	          5.41156003	         -8.98384789	          8.09553097	         29.80017217	         31.06873452	         -2.85899677	         -5.82672177	        -10.03046218	          2.49527072	          0.25353836	        -12.20580846	          1.17357810	          1.75419454	          0.12894631	          0.00999999	          0.00999999	          0.03040676	          0.09071361	          0.01367380	          0.15163648	          0.01965342	          0.48753398	          0.00999999	          0.00999999	          0.16110064	          0.31750493	          0.01620727	          0.10803618	          0.13291003	          0.00999999	          0.01368242	          0.18516486	          0.07755439	          0.09657594	          0.16255672	          0.04607738	          0.00999999	          0.00999999	          0.01404241	          0.01185006	          0.45883567	
          0.57722227	         -4.08217889	         -0.04246810	         -9.68143146	          0.71011404	          0.84310145	          0.01399344	        -15.75965028	         -0.14563759	          5.07109532	        -10.22292226	          7.09063190	         31.41089216	         30.99858043	         -2.70726243	         -5.46175716	        -11.94070309	          2.11358018	          0.24420356	        -12.02932671	          0.81787214	          1.94223937	          0.15015522	          0.00999999	          0.00999999	          0.02565956	          0.08879979	          0.01153903	          0.13182818	          0.01658507	          0.44378051	          0.00999999	          0.00999999	          0.13594909	          0.29401671	          0.01367694	          0.12710216	          0.11215968	          0.00999999	          0.07397708	          0.19146881	          0.06761413	          0.09679236	          0.18761184	          0.03888363	          0.00999999	          0.00999999	          0.01185006	          0.00999999	          0.54067902	
          0.58832270	         -4.05851466	         -0.11401306	         -9.63646452	          0.72669934	          0.84184236	          0.01334633	        -15.95637243	         -0.18348820	          4.68447931	        -11.89916416	          5.93601839	         32.97692724	         30.82735578	         -2.56445401	         -5.15750823	        -13.66041523	          1.69460213	          0.22323317	        -11.86961280	          0.48325399	          2.11763191	          0.18528976	          0.00999999	          0.00999999	          0.02165351	          0.08644060	          0.01319806	          0.11124679	          0.01399575	          0.37449607	          0.00999999	          0.00999999	          0.11472428	          0.26790962	          0.01154165	          0.14826877	          0.09464895	          0.00999999	          0.12657678	          0.19857786	          0.05705800	          0.08168083	          0.22002613	          0.03281299	          0.00999999	          0.00999999	          0.00999999	          0.00999999	          0.56927678	
          0.59942313	         -4.03197590	         -0.19997366	         -9.54047865	          0.74310550	          0.84108281	          0.01261844	        -15.86252242	         -0.17788965	          4.25683706	        -14.05275092	          4.60966239	         34.39558819	         30.64997326	         -2.43099077	         -4.91483888	        -15.40107188	          1.55085583	          0.19937890	        -11.73843230	          0.16109424	          2.27655779	          0.22832173	          0.00999999	          0.00999999	          0.01827289	          0.09423483	          0.01441597	          0.10478281	          0.01181069	          0.31602853	          0.00999999	          0.00999999	          0.09681315	          0.22608271	          0.00999999	          0.15667259	          0.07987205	          0.00999999	          0.17306152	          0.21113597	          0.04814992	          0.06892855	          0.24614465	          0.02769012	          0.00999999	          0.01859237	          0.00999999	          0.00999999	          0.55736962	
          0.61052356	         -4.00360893	         -0.29172105	         -9.39622949	          0.75916610	          0.84095583	          0.01182106	        -15.42894691	         -0.13808161	          3.79204812	        -16.73747696	          3.14379320	         35.43053600	         30.52058161	         -2.30375939	         -4.72654835	        -17.24175305	          1.76598302	          0.17890700	        -11.64511057	         -0.15653290	          2.41570972	          0.25658274	          0.00999999	          0.00999999	          0.01542007	          0.12727911	          0.01548899	          0.09380955	          0.00999999	          0.26668914	          0.00999999	          0.00999999	          0.08169837	          0.19078594	          0.00999999	          0.16803246	          0.06740217	          0.00999999	          0.19593529	          0.23168862	          0.04323642	          0.05816720	          0.25761774	          0.02336705	          0.00999999	          0.04723483	          0.00999999	          0.00999999	          0.51517272	
          0.62162399	         -3.97470872	         -0.38841920	         -9.20663155	          0.77484356	          0.84149912	          0.01097392	        -14.63201724	         -0.06869162	          3.29794820	        -19.97861435	          1.58081339	         35.80454573	         30.39256681	         -2.17701860	         -4.57539666	        -19.07399949	          2.29562046	          0.17751843	        -11.58327583	         -0.46836543	          2.53358356	          0.27660196	          0.00999999	          0.00999999	          0.01301264	          0.15900220	          0.01649382	          0.07916371	          0.00999999	          0.22505277	          0.00999999	          0.00999999	          0.06894336	          0.16099983	          0.00999999	          0.16575140	          0.05687913	          0.00999999	          0.20665344	          0.24287021	          0.04127805	          0.04908595	          0.25244037	          0.01971891	          0.00999999	          0.09431463	          0.00999999	          0.00999999	          0.43474230	
          0.63272441	         -3.94780168	         -0.48873819	         -8.97392877	          0.79016392	          0.84269511	          0.01009063	        -13.47609712	          0.02150987	          2.79731432	        -23.72374370	         -0.18283458	         35.46520810	         30.16477453	         -2.03791299	         -4.42848791	        -20.70366810	          3.09946589	          0.24250519	        -11.54066896	         -0.77155876	          2.62998673	          0.28117583	          0.00999999	          0.00999999	          0.01098106	          0.17602717	          0.01560493	          0.07017167	          0.00999999	          0.18991681	          0.00999999	          0.00999999	          0.05817970	          0.13586401	          0.00999999	          0.13987376	          0.04799897	          0.00999999	          0.20719164	          0.23919967	          0.04503900	          0.04142250	          0.22346440	          0.01664033	          0.00999999	          0.14292751	          0.00999999	          0.00999999	          0.36686893	
          0.64382484	         -3.92661277	         -0.59192583	         -8.69923686	          0.80512836	          0.84448473	          0.00916663	        -11.98592083	          0.12613863	          2.32716958	        -27.85080434	         -2.29589213	         34.44725296	         29.75739106	         -1.87366098	         -4.24680428	        -21.95258017	          3.98704463	          0.39023861	        -11.51395474	         -1.06050083	          2.70629811	          0.26674729	          0.00999999	          0.00999999	          0.00999999	          0.18410258	          0.01543114	          0.06186441	          0.00999999	          0.16026638	          0.00999999	          0.00999999	          0.04909650	          0.11465249	          0.00999999	          0.11803622	          0.04050522	          0.00999999	          0.20278804	          0.22095528	          0.05526424	          0.03495548	          0.18857642	          0.01404239	          0.00999999	          0.18061863	          0.00999999	          0.00999999	          0.30959216	
